<svg xmlns="http://www.w3.org/2000/svg" viewBox="0 0 512 512"><defs><linearGradient id="g" x1="0" y1="0" x2="1" y2="1"><stop offset="0" stop-color="#8b6cff"/><stop offset="1" stop-color="#5b3df0"/></linearGradient></defs><rect width="512" height="512" rx="112" fill="url(#g)"/><g fill="#fff" transform="translate(76 76) scale(15)"><path d="M13 1.5c.6 4.9 2.6 7.6 8.5 8.6-5.9 1-7.9 3.7-8.5 8.6-.6-4.9-2.6-7.6-8.5-8.6 5.9-1 7.9-3.7 8.5-8.6z"/><path d="M5.5 15.5c.3 2.4 1.3 3.7 4 4.2-2.7.5-3.7 1.8-4 4.3-.3-2.5-1.3-3.8-4-4.3 2.7-.5 3.7-1.8 4-4.2z"/></g></svg>
